PathFileType	4	(X/Y/Z)	C:\Users\dell\Documents\OpenSim\4.1\20210318\TRC_File\LX_20210318_static_0001.trc
DataRate	CameraRate	NumFrames	NumMarkers	Units	OrigDataRate	OrigDataStartFrame	OrigNumFrames
100.000000	100.000000	4	38	mm	100.000000	0	300
Frame#	Time	Sternum			R.Acromium			L.Acromium			R.Arm			L.Arm			R.Hand			L.Hand			R.ASIS			L.ASIS			V.Sacral			R.Thigh.Upper			R.Thigh.Front			R.Thigh.Rear			R.Knee.Lat			R.Knee.Med			R.Shank.Upper			R.Shank.Front			R.Shank.Rear			R.Ankle.Lat			R.Ankle.Med			R.Heel			R.Toe.Lat			R.Toe.Med			R.Toe.Tip			L.Thigh.Upper			L.Thigh.Front			L.Thigh.Rear			L.Knee.Lat			L.Knee.Med			L.Shank.Upper			L.Shank.Front			L.Shank.Rear			L.Ankle.Lat			L.Ankle.Med			L.Heel			L.Toe.Lat			L.Toe.Med			L.Toe.Tip			
		X1	Y1	Z1	X2	Y2	Z2	X3	Y3	Z3	X4	Y4	Z4	X5	Y5	Z5	X6	Y6	Z6	X7	Y7	Z7	X8	Y8	Z8	X9	Y9	Z9	X10	Y10	Z10	X11	Y11	Z11	X12	Y12	Z12	X13	Y13	Z13	X14	Y14	Z14	X15	Y15	Z15	X16	Y16	Z16	X17	Y17	Z17	X18	Y18	Z18	X19	Y19	Z19	X20	Y20	Z20	X21	Y21	Z21	X22	Y22	Z22	X23	Y23	Z23	X24	Y24	Z24	X25	Y25	Z25	X26	Y26	Z26	X27	Y27	Z27	X28	Y28	Z28	X29	Y29	Z29	X30	Y30	Z30	X31	Y31	Z31	X32	Y32	Z32	X33	Y33	Z33	X34	Y34	Z34	X35	Y35	Z35	X36	Y36	Z36	X37	Y37	Z37	X38	Y38	Z38	

1	0	-104.0517807006836	1295.035766601563	-7.277765274047852	-230.4215240478516	1449.6064453125	123.269645690918	-228.6691589355469	1459.7353515625	-139.005615234375	-305.8101806640625	1421.993408203125	428.0455017089844	-284.783203125	1428.752319335938	-450.6659851074219	-301.8798522949219	1416.047607421875	679.0518798828125	-253.2800445556641	1410.428466796875	-683.4632568359375	-136.4917144775391	972.6148681640625	128.5680847167969	-120.5576019287109	961.0839233398438	-103.0851593017578	-315.6653137207031	964.4541015625	-7.537806510925293	-218.7263946533203	646.2778930664063	168.1999969482422	-155.9356079101563	617.0989379882813	98.34638214111328	-225.0110626220703	554.2385864257813	165.5746307373047	-249.1624603271484	465.4121398925781	169.0396270751953	-252.3708343505859	461.548828125	38.28946304321289	-256.7478637695313	408.5743103027344	169.0783996582031	-207.1801300048828	357.9557800292969	102.9866256713867	-273.7861022949219	289.7571105957031	175.1421051025391	-292.989501953125	55.67678070068359	154.415771484375	-277.1845703125	81.90181732177734	70.16838836669922	-330.8096923828125	25.29473876953125	97.44655609130859	-175.2831878662109	21.02822685241699	199.2616119384766	-122.6406021118164	20.36601066589355	108.6313018798828	-82.93537139892578	25.15890884399414	142.7479095458984	-192.1401977539063	667.614013671875	-164.8357391357422	-149.1845703125	627.8009033203125	-96.01767730712891	-197.6325531005859	570.4255981445313	-162.5824890136719	-218.7704010009766	463.6140441894531	-165.382080078125	-274.4645080566406	457.829345703125	-45.24823760986328	-225.8138580322266	403.1342163085938	-165.8537445068359	-204.9503631591797	357.3839111328125	-98.95539855957031	-242.7612762451172	297.6438598632813	-168.8932189941406	-288.2922668457031	53.30195236206055	-150.7760772705078	-274.0573120117188	76.06004333496094	-62.66573333740234	-339.1863708496094	24.54082107543945	-94.29240417480469	-183.556640625	20.75443267822266	-188.4834594726563	-131.6699066162109	22.67204475402832	-102.6819305419922	-92.36842346191406	24.3281364440918	-140.1261901855469	
2	0.01	-103.9897003173828	1295.035766601563	-7.266372680664063	-230.3657989501953	1449.59521484375	123.2985534667969	-228.6040496826172	1459.723022460938	-138.9813079833984	-305.7623901367188	1421.946166992188	428.0767822265625	-284.6666564941406	1428.817504882813	-450.6398010253906	-301.8998107910156	1415.966064453125	679.0687255859375	-253.1174163818359	1410.56396484375	-683.4352416992188	-136.3927917480469	972.6030883789063	128.6461486816406	-120.4888000488281	961.055419921875	-103.0221939086914	-315.5885314941406	964.4671630859375	-7.455471038818359	-218.6888885498047	646.259033203125	168.2684173583984	-155.9263763427734	617.0759887695313	98.39018249511719	-224.9962768554688	554.2318725585938	165.6092681884766	-249.16015625	465.3985900878906	169.0758209228516	-252.3796691894531	461.5513916015625	38.31903076171875	-256.7468566894531	408.5743408203125	169.1028594970703	-207.1742706298828	357.9580383300781	103.0133514404297	-273.7884521484375	289.7587890625	175.167236328125	-292.9920959472656	55.67527389526367	154.4142913818359	-277.18798828125	81.8836669921875	70.17349243164063	-330.815185546875	25.30891418457031	97.44705963134766	-175.2976379394531	21.04097557067871	199.2579345703125	-122.6340408325195	20.3719425201416	108.6333236694336	-82.93419647216797	25.18123435974121	142.7519073486328	-192.1066284179688	667.6175537109375	-164.7711791992188	-149.1527099609375	627.8027954101563	-95.96019744873047	-197.5839385986328	570.4484252929688	-162.536865234375	-218.7347106933594	463.6315612792969	-165.3194885253906	-274.4329833984375	457.8165588378906	-45.2104606628418	-225.8047027587891	403.1322326660156	-165.8001861572266	-204.9391326904297	357.389404296875	-98.91099548339844	-242.7342681884766	297.6598205566406	-168.8686218261719	-288.2865600585938	53.30869674682617	-150.7733917236328	-274.0493774414063	76.04862213134766	-62.65743637084961	-339.1775817871094	24.55373573303223	-94.28252410888672	-183.5479125976563	20.76644897460938	-188.4837646484375	-131.6570892333984	22.67409515380859	-102.674072265625	-92.36105346679688	24.32672691345215	-140.1192169189453	
3	0.02	-103.9253921508789	1295.031616210938	-7.243654727935791	-230.2915802001953	1449.597045898438	123.3298263549805	-228.5327758789063	1459.719848632813	-138.9549102783203	-305.683349609375	1421.914184570313	428.1117248535156	-284.5352478027344	1428.888671875	-450.6089477539063	-301.9007568359375	1415.884155273438	679.0847778320313	-252.9413146972656	1410.684814453125	-683.4149780273438	-136.3240966796875	972.568603515625	128.7101135253906	-120.4219360351563	961.0388793945313	-102.9658126831055	-315.5052490234375	964.4724731445313	-7.363408088684082	-218.6329956054688	646.2791748046875	168.3193359375	-155.9007110595703	617.0804443359375	98.41871643066406	-224.9812774658203	554.2345581054688	165.6577911376953	-249.1253967285156	465.40478515625	169.1144104003906	-252.3539123535156	461.5526123046875	38.35609817504883	-256.7294616699219	408.5685729980469	169.1439361572266	-207.1536865234375	357.9659729003906	103.0420227050781	-273.7784423828125	289.73828125	175.1857147216797	-292.9909362792969	55.67168426513672	154.4139709472656	-277.1937255859375	81.9100341796875	70.16979217529297	-330.8168334960938	25.30149078369141	97.45475006103516	-175.2925720214844	21.04451942443848	199.2643127441406	-122.6329879760742	20.37521743774414	108.6367645263672	-82.94239807128906	25.16493988037109	142.7328033447266	-192.0488739013672	667.6210327148438	-164.7386932373047	-149.1428070068359	627.7910766601563	-95.91527557373047	-197.5515289306641	570.4168701171875	-162.4400482177734	-218.6832580566406	463.6159362792969	-165.2720489501953	-274.4125366210938	457.79248046875	-45.16228866577148	-225.7400970458984	403.1640625	-165.7972412109375	-204.9179382324219	357.3912048339844	-98.87516784667969	-242.7145843505859	297.6675415039063	-168.8416290283203	-288.2836608886719	53.30556106567383	-150.7647094726563	-274.0444030761719	76.04537963867188	-62.65625762939453	-339.1828002929688	24.54305267333984	-94.27230834960938	-183.546875	20.76262855529785	-188.4790802001953	-131.6554565429688	22.66828155517578	-102.6788177490234	-92.36060333251953	24.32958030700684	-140.126953125	
4	0.03	-103.8622436523438	1295.019775390625	-7.203787803649902	-230.2321014404297	1449.59912109375	123.3538131713867	-228.4445037841797	1459.709350585938	-138.9075927734375	-305.5927429199219	1421.8974609375	428.1298217773438	-284.4088439941406	1428.960083007813	-450.5989990234375	-301.8644409179688	1415.804809570313	679.1093139648438	-252.7769622802734	1410.784912109375	-683.4053955078125	-136.24658203125	972.5658569335938	128.7682800292969	-120.3700866699219	961.0284423828125	-102.8955917358398	-315.4317321777344	964.4832763671875	-7.282675266265869	-218.4712982177734	646.4493408203125	168.3535766601563	-155.9342346191406	617.1820068359375	98.40168762207031	-225.0549774169922	554.3916625976563	165.5848693847656	-249.0997619628906	465.3899536132813	169.1429595947266	-252.3539428710938	461.564697265625	38.38877487182617	-256.7063598632813	408.5632019042969	169.1708679199219	-207.6923065185547	358.1451416015625	102.8306503295898	-273.7633666992188	289.7400512695313	175.2102508544922	-293.19140625	55.69060134887695	154.5395965576172	-277.0296325683594	81.71889495849609	70.38674926757813	-330.8205871582031	25.30294799804688	97.44501495361328	-175.2796173095703	21.0410270690918	199.2691192626953	-122.638671875	20.37694931030273	108.632682800293	-82.94211578369141	25.16542625427246	142.736083984375	-191.7098693847656	667.7040405273438	-164.7817230224609	-149.1171722412109	627.7918701171875	-95.87894439697266	-197.5994110107422	570.3751220703125	-162.3708953857422	-218.6376647949219	463.6015625	-165.2315521240234	-274.3638305664063	457.7945251464844	-45.12334823608398	-225.7302398681641	403.1408996582031	-165.7586364746094	-204.8941345214844	357.4307250976563	-98.88021087646484	-242.6492004394531	297.5822143554688	-168.8466949462891	-288.4740905761719	53.48423767089844	-150.8628845214844	-273.9113159179688	75.82949829101563	-62.65072250366211	-339.1791076660156	24.56207466125488	-94.27268218994141	-183.5554504394531	20.76407241821289	-188.48193359375	-131.6509857177734	22.66866874694824	-102.6704254150391	-92.35811614990234	24.33084487915039	-140.1311187744141	
